<svg xmlns="http://www.w3.org/2000/svg" version="1.1" xmlns:xlink="http://www.w3.org/1999/xlink" xmlns:svgjs="http://svgjs.dev/svgjs" viewBox="0 0 800 800"><defs><linearGradient x1="50%" y1="0%" x2="50%" y2="100%" id="ffflurry-grad" gradientTransform="rotate(270)"><stop stop-color="hsl(238, 82%, 13%)" stop-opacity="1" offset="0%"></stop><stop stop-color="hsl(1.4, 100%, 67%)" stop-opacity="1" offset="45%"></stop><stop stop-color="hsl(167, 52%, 78%)" stop-opacity="1" offset="100%"></stop></linearGradient></defs><rect width="100%" height="100%" fill="hsl(238, 82%, 13%)"></rect><g fill="url(#ffflurry-grad)"><rect width="477" height="3" x="39.5" y="264.5" rx="1.5" transform="rotate(45, 278, 266)" opacity="0.54"></rect><rect width="317" height="3" x="295.5" y="99.5" rx="1.5" transform="rotate(45, 454, 101)" opacity="0.90"></rect><rect width="260" height="3" x="204" y="133.5" rx="1.5" transform="rotate(45, 334, 135)" opacity="0.69"></rect><rect width="258" height="3" x="557" y="43.5" rx="1.5" transform="rotate(45, 686, 45)" opacity="0.89"></rect><rect width="145" height="3" x="-0.5" y="767.5" rx="1.5" transform="rotate(45, 72, 769)" opacity="0.59"></rect><rect width="535" height="3" x="20.5" y="462.5" rx="1.5" transform="rotate(45, 288, 464)" opacity="0.29"></rect><rect width="304" height="3" x="377" y="444.5" rx="1.5" transform="rotate(45, 529, 446)" opacity="0.70"></rect><rect width="86" height="3" x="182" y="410.5" rx="1.5" transform="rotate(45, 225, 412)" opacity="0.70"></rect><rect width="487" height="3" x="109.5" y="537.5" rx="1.5" transform="rotate(45, 353, 539)" opacity="0.83"></rect><rect width="104" height="3" x="153" y="228.5" rx="1.5" transform="rotate(45, 205, 230)" opacity="0.76"></rect><rect width="51" height="3" x="163.5" y="332.5" rx="1.5" transform="rotate(45, 189, 334)" opacity="0.39"></rect><rect width="272" height="3" x="226" y="298.5" rx="1.5" transform="rotate(45, 362, 300)" opacity="0.77"></rect><rect width="375" height="3" x="207.5" y="25.5" rx="1.5" transform="rotate(45, 395, 27)" opacity="0.71"></rect><rect width="347" height="3" x="104.5" y="343.5" rx="1.5" transform="rotate(45, 278, 345)" opacity="0.65"></rect><rect width="433" height="3" x="273.5" y="760.5" rx="1.5" transform="rotate(45, 490, 762)" opacity="0.54"></rect><rect width="485" height="3" x="80.5" y="694.5" rx="1.5" transform="rotate(45, 323, 696)" opacity="0.92"></rect><rect width="367" height="3" x="-50.5" y="265.5" rx="1.5" transform="rotate(45, 133, 267)" opacity="0.31"></rect><rect width="470" height="3" x="381" y="65.5" rx="1.5" transform="rotate(45, 616, 67)" opacity="0.15"></rect><rect width="238" height="3" x="337" y="180.5" rx="1.5" transform="rotate(45, 456, 182)" opacity="0.14"></rect><rect width="89" height="3" x="552.5" y="380.5" rx="1.5" transform="rotate(45, 597, 382)" opacity="0.14"></rect><rect width="322" height="3" x="395" y="164.5" rx="1.5" transform="rotate(45, 556, 166)" opacity="0.25"></rect><rect width="288" height="3" x="525" y="150.5" rx="1.5" transform="rotate(45, 669, 152)" opacity="0.46"></rect><rect width="511" height="3" x="355.5" y="640.5" rx="1.5" transform="rotate(45, 611, 642)" opacity="0.44"></rect><rect width="77" height="3" x="331.5" y="383.5" rx="1.5" transform="rotate(45, 370, 385)" opacity="1.00"></rect><rect width="51" height="3" x="203.5" y="712.5" rx="1.5" transform="rotate(45, 229, 714)" opacity="0.09"></rect><rect width="411" height="3" x="512.5" y="585.5" rx="1.5" transform="rotate(45, 718, 587)" opacity="0.68"></rect><rect width="329" height="3" x="432.5" y="453.5" rx="1.5" transform="rotate(45, 597, 455)" opacity="0.47"></rect><rect width="408" height="3" x="282" y="38.5" rx="1.5" transform="rotate(45, 486, 40)" opacity="0.23"></rect><rect width="664" height="3" x="-208" y="571.5" rx="1.5" transform="rotate(45, 124, 573)" opacity="0.18"></rect><rect width="680" height="3" x="-281" y="153.5" rx="1.5" transform="rotate(45, 59, 155)" opacity="0.89"></rect><rect width="348" height="3" x="-87" y="367.5" rx="1.5" transform="rotate(45, 87, 369)" opacity="0.88"></rect><rect width="435" height="3" x="148.5" y="80.5" rx="1.5" transform="rotate(45, 366, 82)" opacity="0.23"></rect><rect width="339" height="3" x="596.5" y="510.5" rx="1.5" transform="rotate(45, 766, 512)" opacity="0.83"></rect><rect width="135" height="3" x="238.5" y="619.5" rx="1.5" transform="rotate(45, 306, 621)" opacity="0.42"></rect><rect width="632" height="3" x="261" y="284.5" rx="1.5" transform="rotate(45, 577, 286)" opacity="0.87"></rect><rect width="338" height="3" x="98" y="178.5" rx="1.5" transform="rotate(45, 267, 180)" opacity="0.79"></rect><rect width="94" height="3" x="715" y="72.5" rx="1.5" transform="rotate(45, 762, 74)" opacity="0.76"></rect><rect width="51" height="3" x="731.5" y="417.5" rx="1.5" transform="rotate(45, 757, 419)" opacity="0.72"></rect><rect width="604" height="3" x="207" y="567.5" rx="1.5" transform="rotate(45, 509, 569)" opacity="0.68"></rect><rect width="278" height="3" x="395" y="693.5" rx="1.5" transform="rotate(45, 534, 695)" opacity="0.11"></rect><rect width="454" height="3" x="-66" y="762.5" rx="1.5" transform="rotate(45, 161, 764)" opacity="0.87"></rect><rect width="120" height="3" x="-18" y="523.5" rx="1.5" transform="rotate(45, 42, 525)" opacity="0.86"></rect><rect width="454" height="3" x="-9" y="72.5" rx="1.5" transform="rotate(45, 218, 74)" opacity="0.82"></rect><rect width="310" height="3" x="-100" y="445.5" rx="1.5" transform="rotate(45, 55, 447)" opacity="0.80"></rect><rect width="282" height="3" x="462" y="553.5" rx="1.5" transform="rotate(45, 603, 555)" opacity="0.43"></rect><rect width="223" height="3" x="573.5" y="323.5" rx="1.5" transform="rotate(45, 685, 325)" opacity="0.32"></rect><rect width="234" height="3" x="16" y="685.5" rx="1.5" transform="rotate(45, 133, 687)" opacity="0.12"></rect><rect width="478" height="3" x="-156" y="46.5" rx="1.5" transform="rotate(45, 83, 48)" opacity="0.75"></rect><rect width="382" height="3" x="224" y="575.5" rx="1.5" transform="rotate(45, 415, 577)" opacity="0.07"></rect><rect width="56" height="3" x="176" y="620.5" rx="1.5" transform="rotate(45, 204, 622)" opacity="0.46"></rect><rect width="213" height="3" x="161.5" y="543.5" rx="1.5" transform="rotate(45, 268, 545)" opacity="0.54"></rect><rect width="370" height="3" x="90" y="770.5" rx="1.5" transform="rotate(45, 275, 772)" opacity="0.23"></rect><rect width="212" height="3" x="398" y="352.5" rx="1.5" transform="rotate(45, 504, 354)" opacity="0.57"></rect><rect width="485" height="3" x="523.5" y="307.5" rx="1.5" transform="rotate(45, 766, 309)" opacity="0.45"></rect><rect width="284" height="3" x="559" y="377.5" rx="1.5" transform="rotate(45, 701, 379)" opacity="0.36"></rect><rect width="439" height="3" x="528.5" y="205.5" rx="1.5" transform="rotate(45, 748, 207)" opacity="0.19"></rect><rect width="576" height="3" x="140" y="657.5" rx="1.5" transform="rotate(45, 428, 659)" opacity="0.35"></rect><rect width="389" height="3" x="465.5" y="425.5" rx="1.5" transform="rotate(45, 660, 427)" opacity="0.71"></rect><rect width="121" height="3" x="592.5" y="251.5" rx="1.5" transform="rotate(45, 653, 253)" opacity="0.76"></rect><rect width="444" height="3" x="525" y="701.5" rx="1.5" transform="rotate(45, 747, 703)" opacity="0.83"></rect><rect width="315" height="3" x="490.5" y="752.5" rx="1.5" transform="rotate(45, 648, 754)" opacity="0.32"></rect><rect width="491" height="3" x="43.5" y="33.5" rx="1.5" transform="rotate(45, 289, 35)" opacity="0.94"></rect><rect width="144" height="3" x="103" y="490.5" rx="1.5" transform="rotate(45, 175, 492)" opacity="0.11"></rect><rect width="190" height="3" x="-39" y="653.5" rx="1.5" transform="rotate(45, 56, 655)" opacity="0.49"></rect><rect width="344" height="3" x="212" y="754.5" rx="1.5" transform="rotate(45, 384, 756)" opacity="0.35"></rect><rect width="91" height="3" x="539.5" y="498.5" rx="1.5" transform="rotate(45, 585, 500)" opacity="0.93"></rect><rect width="448" height="3" x="237" y="278.5" rx="1.5" transform="rotate(45, 461, 280)" opacity="0.53"></rect><rect width="261" height="3" x="-99.5" y="724.5" rx="1.5" transform="rotate(45, 31, 726)" opacity="0.47"></rect><rect width="196" height="3" x="261" y="458.5" rx="1.5" transform="rotate(45, 359, 460)" opacity="0.77"></rect><rect width="426" height="3" x="-176" y="592.5" rx="1.5" transform="rotate(45, 37, 594)" opacity="0.45"></rect><rect width="501" height="3" x="428.5" y="497.5" rx="1.5" transform="rotate(45, 679, 499)" opacity="0.25"></rect><rect width="346" height="3" x="-133" y="262.5" rx="1.5" transform="rotate(45, 40, 264)" opacity="0.85"></rect><rect width="61" height="3" x="399.5" y="494.5" rx="1.5" transform="rotate(45, 430, 496)" opacity="0.52"></rect><rect width="242" height="3" x="246" y="210.5" rx="1.5" transform="rotate(45, 367, 212)" opacity="0.10"></rect><rect width="361" height="3" x="276.5" y="429.5" rx="1.5" transform="rotate(45, 457, 431)" opacity="0.31"></rect><rect width="311" height="3" x="401.5" y="41.5" rx="1.5" transform="rotate(45, 557, 43)" opacity="0.54"></rect><rect width="473" height="3" x="-77.5" y="146.5" rx="1.5" transform="rotate(45, 159, 148)" opacity="0.37"></rect></g></svg>